<svg width="206" height="60" viewBox="0 0 206 60" fill="none" xmlns="http://www.w3.org/2000/svg">
<path d="M203.915 53.0753C203.915 56.2195 201.315 58.7663 198.099 58.7663H7.77695C4.56266 58.7663 1.95361 56.2195 1.95361 53.0753V7.69118C1.95361 4.54848 4.56266 1.99272 7.77695 1.99272H198.098C201.315 1.99272 203.914 4.54848 203.914 7.69118L203.915 53.0753Z" fill="black"/>
<path d="M197.486 2.06136C200.988 2.06136 203.838 4.8399 203.838 8.25452V52.5045C203.838 55.9191 200.988 58.6977 197.486 58.6977H8.38319C4.88101 58.6977 2.03124 55.9191 2.03124 52.5045V8.25452C2.03124 4.8399 4.88101 2.06136 8.38319 2.06136H197.486ZM197.486 0.879522H8.38319C4.22483 0.879522 0.819092 4.20012 0.819092 8.25452V52.5045C0.819092 56.5589 4.22483 59.8795 8.38319 59.8795H197.486C201.644 59.8795 205.05 56.5589 205.05 52.5045V8.25452C205.05 4.20012 201.644 0.879522 197.486 0.879522Z" fill="#A6A6A6"/>
<path d="M46.3973 30.0609C46.3534 25.307 50.3896 22.9942 50.5742 22.8865C48.2883 19.6371 44.7453 19.1931 43.5002 19.1577C40.5245 18.8524 37.6381 20.8938 36.1222 20.8938C34.5761 20.8938 32.2418 19.1872 29.726 19.2373C26.4886 19.286 23.4599 21.1135 21.7988 23.9514C18.3708 29.7379 20.9275 38.2412 24.2118 42.9185C25.8547 45.2091 27.7745 47.7668 30.2873 47.6768C32.7456 47.578 33.6639 46.1487 36.6305 46.1487C39.5699 46.1487 40.4322 47.6768 42.995 47.6193C45.6333 47.578 47.2944 45.3183 48.8798 43.007C50.7784 40.3815 51.5409 37.7958 51.5711 37.663C51.5091 37.6424 46.4472 35.7588 46.3973 30.0609Z" fill="white"/>
<path d="M41.5563 16.0808C42.8785 14.4687 43.7831 12.2754 43.532 10.0496C41.6183 10.1322 39.225 11.3402 37.8468 12.917C36.6275 14.3064 35.5383 16.5838 35.8197 18.7255C37.9694 18.8819 40.1766 17.6679 41.5563 16.0808Z" fill="white"/>
<path d="M81.9743 47.3479H78.5387L76.6568 41.5821H70.1153L68.3226 47.3479H64.9778L71.4587 27.7186H75.4616L81.9743 47.3479ZM76.0894 39.1631L74.3875 34.0375C74.2075 33.5139 73.8701 32.2808 73.3724 30.3397H73.3119C73.1137 31.1745 72.7945 32.4076 72.3558 34.0375L70.6841 39.1631H76.0894Z" fill="white"/>
<path d="M98.6411 40.0968C98.6411 42.504 97.974 44.4068 96.6396 45.8036C95.4445 47.047 93.9604 47.668 92.1889 47.668C90.2767 47.668 88.9031 46.9984 88.0665 45.6591H88.006V53.1152H84.7806V37.8534C84.7806 36.34 84.7398 34.7868 84.6611 33.1938H87.4977L87.6777 35.4373H87.7382C88.8138 33.747 90.4462 32.9033 92.6367 32.9033C94.3492 32.9033 95.7789 33.5626 96.9225 34.8827C98.0693 36.2043 98.6411 37.9419 98.6411 40.0968ZM95.3553 40.2119C95.3553 38.8342 95.0376 37.6985 94.3992 36.8046C93.7017 35.8724 92.7653 35.4063 91.5914 35.4063C90.7956 35.4063 90.0725 35.6659 89.4265 36.1778C88.779 36.694 88.3554 37.3681 88.1573 38.2029C88.0574 38.5923 88.0075 38.9109 88.0075 39.1617V41.5217C88.0075 42.5512 88.3312 43.42 88.9787 44.1295C89.6262 44.839 90.4673 45.193 91.5021 45.193C92.7169 45.193 93.6624 44.7357 94.3386 43.8242C95.0164 42.9111 95.3553 41.7075 95.3553 40.2119Z" fill="white"/>
<path d="M115.338 40.0968C115.338 42.504 114.671 44.4068 113.335 45.8036C112.141 47.047 110.657 47.668 108.886 47.668C106.974 47.668 105.6 46.9984 104.765 45.6591H104.704V53.1152H101.479V37.8534C101.479 36.34 101.438 34.7868 101.36 33.1938H104.196L104.376 35.4373H104.437C105.511 33.747 107.143 32.9033 109.335 32.9033C111.046 32.9033 112.476 33.5626 113.623 34.8827C114.765 36.2043 115.338 37.9419 115.338 40.0968ZM112.052 40.2119C112.052 38.8342 111.733 37.6985 111.095 36.8046C110.397 35.8724 109.464 35.4063 108.288 35.4063C107.491 35.4063 106.769 35.6659 106.122 36.1778C105.474 36.694 105.052 37.3681 104.854 38.2029C104.756 38.5923 104.704 38.9109 104.704 39.1617V41.5217C104.704 42.5512 105.028 43.42 105.673 44.1295C106.32 44.8375 107.161 45.193 108.199 45.193C109.414 45.193 110.359 44.7357 111.036 43.8242C111.713 42.9111 112.052 41.7075 112.052 40.2119Z" fill="white"/>
<path d="M134.006 41.8432C134.006 43.5129 133.412 44.8714 132.218 45.9201C130.906 47.0662 129.08 47.6385 126.734 47.6385C124.568 47.6385 122.831 47.2314 121.516 46.4157L122.264 43.7947C123.68 44.6295 125.233 45.0484 126.926 45.0484C128.141 45.0484 129.087 44.78 129.766 44.246C130.442 43.7121 130.779 42.9952 130.779 42.1014C130.779 41.3049 130.501 40.6337 129.943 40.0895C129.388 39.5452 128.46 39.0393 127.165 38.5717C123.64 37.2899 121.879 35.4122 121.879 32.9431C121.879 31.3294 122.497 30.0064 123.733 28.9768C124.964 27.9458 126.607 27.431 128.661 27.431C130.493 27.431 132.015 27.7422 133.23 28.3632L132.424 30.9268C131.289 30.325 130.006 30.0241 128.571 30.0241C127.436 30.0241 126.55 30.2969 125.914 30.8397C125.377 31.325 125.108 31.9165 125.108 32.6171C125.108 33.393 125.415 34.0346 126.032 34.539C126.569 35.0051 127.545 35.5096 128.961 36.0539C130.693 36.7338 131.965 37.5289 132.784 38.4404C133.599 39.349 134.006 40.4862 134.006 41.8432Z" fill="white"/>
<path d="M144.67 35.5538H141.115V42.4258C141.115 44.1737 141.741 45.0469 142.997 45.0469C143.573 45.0469 144.051 44.9982 144.429 44.9009L144.519 47.2889C143.883 47.5205 143.047 47.637 142.01 47.637C140.737 47.637 139.741 47.2579 139.023 46.5012C138.307 45.7431 137.947 44.4716 137.947 42.6854V35.5508H135.829V33.1908H137.947V30.5993L141.115 29.6671V33.1908H144.67V35.5538Z" fill="white"/>
<path d="M160.71 40.1543C160.71 42.33 160.072 44.1162 158.798 45.513C157.462 46.9511 155.689 47.668 153.479 47.668C151.349 47.668 149.653 46.9792 148.389 45.6015C147.124 44.2239 146.491 42.4848 146.491 40.3889C146.491 38.1955 147.142 36.399 148.448 35.0022C149.75 33.6039 151.508 32.9047 153.718 32.9047C155.848 32.9047 157.562 33.5935 158.856 34.9727C160.093 36.3105 160.71 38.0377 160.71 40.1543ZM157.364 40.2561C157.364 38.9507 157.078 37.8312 156.499 36.8975C155.823 35.7677 154.856 35.2042 153.603 35.2042C152.307 35.2042 151.322 35.7692 150.646 36.8975C150.066 37.8327 149.78 38.9699 149.78 40.3151C149.78 41.6205 150.066 42.74 150.646 43.6722C151.343 44.8021 152.317 45.3655 153.574 45.3655C154.806 45.3655 155.773 44.7903 156.47 43.6427C157.065 42.6913 157.364 41.56 157.364 40.2561Z" fill="white"/>
<path d="M171.194 35.9595C170.875 35.9019 170.535 35.8724 170.178 35.8724C169.043 35.8724 168.166 36.2899 167.548 37.1262C167.011 37.8637 166.742 38.7959 166.742 39.9213V47.3479H163.518L163.549 37.6513C163.549 36.0199 163.508 34.5346 163.427 33.1953H166.237L166.355 35.9034H166.444C166.784 34.9727 167.322 34.2234 168.057 33.6614C168.775 33.1555 169.551 32.9033 170.388 32.9033C170.686 32.9033 170.955 32.9239 171.194 32.9608V35.9595Z" fill="white"/>
<path d="M185.619 39.6012C185.619 40.1647 185.581 40.6396 185.501 41.0275H175.825C175.863 42.4258 176.33 43.4952 177.229 44.2327C178.044 44.892 179.099 45.2224 180.394 45.2224C181.826 45.2224 183.134 44.9997 184.309 44.5528L184.814 46.7358C183.441 47.3199 181.819 47.6104 179.948 47.6104C177.696 47.6104 175.929 46.9644 174.644 45.6738C173.361 44.3832 172.718 42.65 172.718 40.4759C172.718 38.3416 173.315 36.5642 174.512 35.1467C175.765 33.6334 177.457 32.8767 179.587 32.8767C181.68 32.8767 183.264 33.6334 184.339 35.1467C185.191 36.3488 185.619 37.8356 185.619 39.6012ZM182.544 38.7855C182.565 37.8533 182.354 37.048 181.917 36.368C181.359 35.4933 180.501 35.0567 179.347 35.0567C178.293 35.0567 177.435 35.483 176.78 36.3385C176.243 37.0185 175.923 37.8342 175.825 38.7841H182.544V38.7855Z" fill="white"/>
<path d="M75.023 15.6428C75.023 17.3789 74.4889 18.6858 73.4224 19.5634C72.4345 20.3732 71.0306 20.7788 69.2122 20.7788C68.3106 20.7788 67.539 20.7404 66.8931 20.6637V11.178C67.7357 11.0453 68.6434 10.9774 69.6237 10.9774C71.3559 10.9774 72.6615 11.3447 73.5419 12.0792C74.5283 12.9097 75.023 14.097 75.023 15.6428ZM73.3513 15.6856C73.3513 14.5602 73.0457 13.6973 72.4345 13.0955C71.8234 12.4952 70.9308 12.1943 69.7553 12.1943C69.2561 12.1943 68.831 12.2267 68.4785 12.2946V19.5059C68.6737 19.5354 69.0307 19.5486 69.5496 19.5486C70.7629 19.5486 71.6993 19.2197 72.3589 18.5619C73.0185 17.904 73.3513 16.9453 73.3513 15.6856Z" fill="white"/>
<path d="M83.8866 17.1591C83.8866 18.2285 83.5734 19.1046 82.9471 19.792C82.2905 20.4985 81.4207 20.851 80.3344 20.851C79.2876 20.851 78.454 20.5132 77.8322 19.8347C77.212 19.1577 76.9019 18.3037 76.9019 17.2741C76.9019 16.1974 77.2211 15.3139 77.8625 14.628C78.5039 13.9421 79.3662 13.5984 80.4524 13.5984C81.4993 13.5984 82.3404 13.9362 82.9773 14.6132C83.5825 15.2711 83.8866 16.1207 83.8866 17.1591ZM82.2421 17.2092C82.2421 16.5676 82.0999 16.0174 81.817 15.5587C81.4842 15.0041 81.0107 14.7268 80.395 14.7268C79.7581 14.7268 79.274 15.0041 78.9411 15.5587C78.6567 16.0174 78.516 16.5765 78.516 17.2373C78.516 17.8789 78.6582 18.4291 78.9411 18.8878C79.2845 19.4424 79.7626 19.7197 80.3798 19.7197C80.985 19.7197 81.46 19.438 81.8019 18.873C82.0954 18.4055 82.2421 17.8509 82.2421 17.2092Z" fill="white"/>
<path d="M95.7713 13.7401L93.5399 20.6932H92.0876L91.1632 17.6739C90.9287 16.9202 90.7381 16.1709 90.5899 15.4275H90.5611C90.4235 16.1915 90.2328 16.9393 89.9878 17.6739L89.0059 20.6932H87.537L85.4387 13.7401H87.068L87.8744 17.0455C88.0695 17.8273 88.2299 18.5722 88.3585 19.2772H88.3872C88.5052 18.6961 88.7004 17.9556 88.9757 17.0603L89.9878 13.7415H91.2797L92.2494 16.9895C92.4839 17.7816 92.6745 18.5441 92.8213 19.2787H92.8652C92.9726 18.5633 93.1344 17.8007 93.3493 16.9895L94.2146 13.7415H95.7713V13.7401Z" fill="white"/>
<path d="M103.99 20.6932H102.405V16.7107C102.405 15.4835 101.927 14.8699 100.968 14.8699C100.497 14.8699 100.118 15.0381 99.8226 15.3758C99.5307 15.7136 99.3824 16.1119 99.3824 16.5676V20.6917H97.797V15.7269C97.797 15.1162 97.7773 14.454 97.7395 13.7371H99.1328L99.2069 14.8242H99.2508C99.4354 14.4864 99.7107 14.2076 100.072 13.9849C100.502 13.7253 100.983 13.594 101.509 13.594C102.175 13.594 102.729 13.8035 103.169 14.2239C103.717 14.7386 103.99 15.5071 103.99 16.5278V20.6932Z" fill="white"/>
<path d="M108.362 20.6932H106.779V10.5496H108.362V20.6932Z" fill="white"/>
<path d="M117.697 17.1591C117.697 18.2285 117.383 19.1046 116.757 19.792C116.101 20.4985 115.229 20.851 114.145 20.851C113.096 20.851 112.263 20.5132 111.642 19.8347C111.022 19.1577 110.712 18.3037 110.712 17.2741C110.712 16.1974 111.031 15.3139 111.673 14.628C112.314 13.9421 113.176 13.5984 114.261 13.5984C115.309 13.5984 116.149 13.9362 116.787 14.6132C117.393 15.2711 117.697 16.1207 117.697 17.1591ZM116.051 17.2092C116.051 16.5676 115.908 16.0174 115.626 15.5587C115.294 15.0041 114.819 14.7268 114.205 14.7268C113.567 14.7268 113.083 15.0041 112.751 15.5587C112.467 16.0174 112.326 16.5765 112.326 17.2373C112.326 17.8789 112.468 18.4291 112.751 18.8878C113.095 19.4424 113.573 19.7197 114.19 19.7197C114.795 19.7197 115.269 19.438 115.61 18.873C115.905 18.4055 116.051 17.8509 116.051 17.2092Z" fill="white"/>
<path d="M125.37 20.6932H123.946L123.828 19.8923H123.784C123.297 20.5309 122.603 20.851 121.701 20.851C121.028 20.851 120.483 20.6401 120.073 20.2212C119.701 19.8406 119.515 19.3672 119.515 18.8052C119.515 17.9556 119.878 17.3081 120.609 16.8597C121.338 16.4113 122.364 16.1915 123.684 16.2018V16.072C123.684 15.156 123.191 14.6988 122.203 14.6988C121.5 14.6988 120.879 14.8714 120.344 15.2136L120.022 14.1988C120.684 13.799 121.503 13.5984 122.468 13.5984C124.332 13.5984 125.267 14.5572 125.267 16.4747V19.0353C125.267 19.73 125.301 20.2831 125.37 20.6932ZM123.724 18.3037V17.2314C121.975 17.2019 121.1 17.6694 121.1 18.6326C121.1 18.9955 121.2 19.2669 121.404 19.4483C121.609 19.6297 121.869 19.7197 122.179 19.7197C122.527 19.7197 122.852 19.612 123.149 19.3981C123.447 19.1828 123.63 18.9099 123.698 18.5751C123.714 18.4999 123.724 18.4084 123.724 18.3037Z" fill="white"/>
<path d="M134.378 20.6932H132.972L132.897 19.5766H132.854C132.404 20.4262 131.639 20.851 130.563 20.851C129.704 20.851 128.988 20.5221 128.421 19.8642C127.854 19.2064 127.571 18.3524 127.571 17.3036C127.571 16.1782 127.878 15.2667 128.495 14.5705C129.093 13.9215 129.825 13.597 130.696 13.597C131.654 13.597 132.324 13.9111 132.705 14.541H132.736V10.5496H134.323V18.8199C134.323 19.497 134.341 20.1209 134.378 20.6932ZM132.736 17.7609V16.6015C132.736 16.4009 132.72 16.2387 132.692 16.1148C132.602 15.7431 132.41 15.4304 132.118 15.1782C131.823 14.9259 131.468 14.7991 131.058 14.7991C130.466 14.7991 130.003 15.0277 129.663 15.4864C129.326 15.9452 129.155 16.5307 129.155 17.2461C129.155 17.9335 129.317 18.491 129.642 18.9202C129.985 19.3775 130.448 19.6061 131.028 19.6061C131.548 19.6061 131.964 19.4158 132.28 19.0338C132.586 18.6813 132.736 18.2565 132.736 17.7609Z" fill="white"/>
<path d="M147.938 17.1591C147.938 18.2285 147.625 19.1046 146.998 19.792C146.342 20.4985 145.473 20.851 144.386 20.851C143.34 20.851 142.507 20.5132 141.884 19.8347C141.263 19.1577 140.953 18.3037 140.953 17.2741C140.953 16.1974 141.272 15.3139 141.914 14.628C142.555 13.9421 143.418 13.5984 144.505 13.5984C145.551 13.5984 146.393 13.9362 147.029 14.6132C147.634 15.2711 147.938 16.1207 147.938 17.1591ZM146.295 17.2092C146.295 16.5676 146.153 16.0174 145.87 15.5587C145.535 15.0041 145.063 14.7268 144.446 14.7268C143.811 14.7268 143.327 15.0041 142.992 15.5587C142.708 16.0174 142.567 16.5765 142.567 17.2373C142.567 17.8789 142.71 18.4291 142.992 18.8878C143.336 19.4424 143.814 19.7197 144.431 19.7197C145.036 19.7197 145.513 19.438 145.855 18.873C146.147 18.4055 146.295 17.8509 146.295 17.2092Z" fill="white"/>
<path d="M156.463 20.6932H154.879V16.7107C154.879 15.4835 154.401 14.8699 153.44 14.8699C152.969 14.8699 152.59 15.0381 152.296 15.3758C152.003 15.7136 151.856 16.1119 151.856 16.5676V20.6917H150.269V15.7269C150.269 15.1162 150.251 14.454 150.213 13.7371H151.605L151.679 14.8242H151.723C151.909 14.4864 152.184 14.2076 152.544 13.9849C152.976 13.7253 153.455 13.594 153.983 13.594C154.647 13.594 155.201 13.8035 155.641 14.2239C156.19 14.7386 156.463 15.5071 156.463 16.5278V20.6932Z" fill="white"/>
<path d="M167.133 14.8979H165.387V18.2757C165.387 19.1341 165.697 19.5634 166.311 19.5634C166.596 19.5634 166.832 19.5398 167.018 19.4911L167.058 20.6637C166.745 20.7788 166.334 20.8363 165.827 20.8363C165.201 20.8363 164.714 20.6504 164.361 20.2787C164.007 19.907 163.832 19.2816 163.832 18.404V14.8979H162.789V13.7401H163.832V12.4657L165.385 12.0084V13.7386H167.131V14.8979H167.133Z" fill="white"/>
<path d="M175.526 20.6932H173.939V16.7402C173.939 15.4938 173.461 14.8699 172.503 14.8699C171.768 14.8699 171.266 15.2313 170.99 15.954C170.943 16.1059 170.916 16.2918 170.916 16.5101V20.6917H169.332V10.5496H170.916V14.7401H170.946C171.446 13.9775 172.161 13.597 173.089 13.597C173.745 13.597 174.288 13.8064 174.719 14.2268C175.257 14.7504 175.526 15.5292 175.526 16.5588V20.6932Z" fill="white"/>
<path d="M184.183 16.8877C184.183 17.165 184.162 17.3981 184.124 17.5883H179.37C179.391 18.2757 179.618 18.7993 180.058 19.1622C180.46 19.4867 180.979 19.6489 181.615 19.6489C182.318 19.6489 182.96 19.5398 183.538 19.32L183.786 20.3938C183.109 20.6799 182.314 20.823 181.392 20.823C180.288 20.823 179.418 20.5059 178.789 19.8716C178.156 19.2374 177.843 18.3863 177.843 17.3184C177.843 16.2697 178.135 15.3965 178.724 14.7003C179.338 13.9569 180.168 13.5852 181.217 13.5852C182.243 13.5852 183.022 13.9569 183.548 14.7003C183.973 15.2903 184.183 16.0204 184.183 16.8877ZM182.671 16.488C182.683 16.0293 182.578 15.634 182.364 15.3006C182.088 14.8714 181.669 14.656 181.102 14.656C180.584 14.656 180.162 14.8655 179.84 15.2859C179.577 15.6207 179.421 16.0204 179.37 16.488H182.671Z" fill="white"/>
</svg>
