<svg width="80" height="80" viewBox="0 0 80 80" fill="none" xmlns="http://www.w3.org/2000/svg">
<path d="M26.3834 40.7544C28.0003 39.247 29.518 37.7961 31.0835 36.3968C31.7065 35.84 31.8259 35.2937 31.6789 34.4711C31.1543 31.5338 29.8458 28.8298 29.1696 25.9408C28.6312 23.6407 29.0632 21.4864 30.6462 19.8115C37.0583 13.0276 43.6046 6.36841 51.017 0.60551C52.2199 -0.329723 53.2113 -0.181224 53.4704 1.04854C54.3904 5.41365 55.6927 9.70096 55.9367 14.2051C56.1599 18.3238 54.292 21.2792 51.1392 23.6744C49.6794 24.7834 48.2164 25.8885 46.5674 27.1375C49.3076 29.2473 52.1691 30.9997 54.4063 33.6326C55.9509 31.6223 57.4189 29.7957 58.7942 27.9041C61.6959 23.9131 65.5424 22.8771 70.2477 24.123C73.0115 24.8548 75.7304 25.6972 78.3816 26.7474C80.3504 27.5272 80.5089 28.3721 78.9335 29.7793C75.5628 32.7902 72.3699 35.9711 69.2845 39.2631C67.0902 41.6042 65.2695 44.2289 63.2606 46.71C58.5528 52.5242 56.1541 53.3211 48.8244 51.3694C47.7525 51.084 46.643 50.9026 45.6085 50.5218C44.1985 50.0029 43.2948 50.3887 42.3753 51.5441C40.2899 54.1643 38.0768 56.6872 35.6387 59.0094C33.0037 61.5191 30.1977 63.4938 26.234 63.4568C23.0491 63.427 19.9884 64.4384 16.9263 65.2629C16.04 65.5015 15.464 66.0323 14.941 66.7117C11.7073 70.9121 8.20527 74.8685 4.0296 78.2063C3.41396 78.6984 2.80725 79.2032 2.16907 79.6657C1.53226 80.1272 0.852809 80.1363 0.318664 79.5331C-0.25492 78.8854 0.0117702 78.2694 0.596454 77.7686C1.39421 77.0854 2.20533 76.4165 3.02637 75.7604C7.37536 72.285 10.7349 67.91 14.2717 63.7083C15.3691 62.4045 15.3423 60.5841 15.5808 58.9473C15.8573 57.049 16.047 55.1375 16.2316 53.2277C16.4361 51.1111 17.3463 49.357 18.8933 47.8911C21.3697 45.5444 23.8339 43.1854 26.3834 40.7544ZM34.7802 56.3423C38.5087 51.9568 42.4314 47.7493 46.5453 43.7069C48.2247 42.0567 49.6691 40.193 50.9068 38.1772C51.7569 36.7928 51.6883 35.5698 50.7013 34.2987C49.1633 32.3179 47.0209 31.0494 45.086 29.5286C44.1984 28.8309 43.5643 28.9459 42.7541 29.6132C35.8666 35.2863 29.139 41.1209 23.0328 47.6247C19.1444 51.7663 17.9141 56.7685 17.7523 62.3123C20.4333 61.7346 23.0593 61.0544 25.7357 60.9873C29.4935 60.8931 32.2166 59.0553 34.7802 56.3423ZM47.6851 6.59623C43.3471 10.4134 39.321 14.5383 35.3319 18.6987C33.1984 20.9237 31.5566 23.4076 32.0637 26.6328C32.4298 28.9616 33.6907 31.0484 34.0971 33.607C34.8153 33.0088 35.2915 32.6058 35.7746 32.2108C38.5714 29.9236 41.24 27.5011 44.2864 25.4926C46.9956 23.7064 49.6541 21.7722 51.6438 19.1396C52.4437 18.0812 53.1801 16.949 53.078 15.5893C52.7797 11.6183 52.1807 7.6854 51.3566 3.63666C49.9612 4.4651 48.883 5.42754 47.6851 6.59623ZM73.7125 31.2341C74.5504 30.414 75.6144 29.7937 76.2388 28.6055C73.7121 27.4692 71.1974 26.759 68.5913 26.308C65.8598 25.8353 63.9763 26.8242 62.173 28.9392C57.1952 34.7774 52.5208 40.8771 47.068 46.3192C46.5753 46.8109 46.0418 47.3257 45.8048 48.1249C48.8869 48.9171 51.867 49.4899 54.969 49.2856C56.8375 49.1626 58.3368 48.4048 59.4382 46.9579C63.6918 41.3702 68.558 36.3221 73.7125 31.2341Z" fill="white"/>
</svg>
