<svg width="204" height="60" viewBox="0 0 204 60" fill="none" xmlns="http://www.w3.org/2000/svg">
<path d="M196.446 59.8795H7.60351C3.45086 59.8795 0.0498047 56.5589 0.0498047 52.5045V8.25452C0.0498047 4.20011 3.45086 0.879517 7.60351 0.879517H196.446C200.599 0.879517 204 4.20011 204 8.25452V52.5045C204 56.5589 200.599 59.8795 196.446 59.8795Z" fill="black"/>
<path d="M196.446 2.06136C199.944 2.06136 202.789 4.83989 202.789 8.25452V52.5045C202.789 55.9191 199.944 58.6977 196.446 58.6977H7.60351C4.10614 58.6977 1.26029 55.9191 1.26029 52.5045V8.25452C1.26029 4.83989 4.10614 2.06136 7.60351 2.06136H196.446ZM196.446 0.879517H7.60351C3.45086 0.879517 0.0498047 4.20011 0.0498047 8.25452V52.5045C0.0498047 56.5589 3.45086 59.8795 7.60351 59.8795H196.446C200.599 59.8795 204 56.5589 204 52.5045V8.25452C204 4.20011 200.599 0.879517 196.446 0.879517Z" fill="#A6A6A6"/>
<path d="M71.6853 15.989C71.6853 17.2207 71.3077 18.2071 70.5636 18.9427C69.7082 19.8148 68.594 20.2536 67.2287 20.2536C65.9238 20.2536 64.8096 19.8074 63.8956 18.928C62.9797 18.0356 62.5227 16.9404 62.5227 15.6295C62.5227 14.3186 62.9797 13.2234 63.8956 12.3384C64.8096 11.4516 65.9238 11.0054 67.2287 11.0054C67.8783 11.0054 68.4977 11.1363 69.0888 11.3797C69.6779 11.6249 70.1576 11.9568 70.5051 12.3661L69.7157 13.1441C69.1095 12.4454 68.2843 12.1006 67.2287 12.1006C66.2769 12.1006 65.4517 12.4251 64.751 13.0796C64.058 13.736 63.7105 14.5859 63.7105 15.6295C63.7105 16.6731 64.058 17.5304 64.751 18.1868C65.4517 18.8339 66.2769 19.1658 67.2287 19.1658C68.239 19.1658 69.0888 18.8339 69.7592 18.1794C70.201 17.7461 70.4522 17.1488 70.5183 16.3854H67.2287V15.3198H71.6174C71.6702 15.5502 71.6853 15.7733 71.6853 15.989Z" fill="white" stroke="white" stroke-width="0.16" stroke-miterlimit="10"/>
<path d="M78.6479 12.2942H74.5254V15.0967H78.2419V16.1623H74.5254V18.9648H78.6479V20.0508H73.3584V11.2082H78.6479V12.2942Z" fill="white" stroke="white" stroke-width="0.16" stroke-miterlimit="10"/>
<path d="M83.5616 20.0508H82.3946V12.2942H79.866V11.2082H86.0921V12.2942H83.5616V20.0508Z" fill="white" stroke="white" stroke-width="0.16" stroke-miterlimit="10"/>
<path d="M90.5979 20.0508V11.2082H91.7631V20.0508H90.5979Z" fill="white" stroke="white" stroke-width="0.16" stroke-miterlimit="10"/>
<path d="M96.9278 20.0508H95.7702V12.2942H93.2322V11.2082H99.4659V12.2942H96.9278V20.0508Z" fill="white" stroke="white" stroke-width="0.16" stroke-miterlimit="10"/>
<path d="M111.254 18.9132C110.36 19.8074 109.254 20.2536 107.934 20.2536C106.606 20.2536 105.5 19.8074 104.606 18.9132C103.715 18.0209 103.271 16.9257 103.271 15.6295C103.271 14.3334 103.715 13.2382 104.606 12.3458C105.5 11.4516 106.606 11.0054 107.934 11.0054C109.246 11.0054 110.353 11.4516 111.246 12.3532C112.145 13.2529 112.589 14.3407 112.589 15.6295C112.589 16.9257 112.145 18.0209 111.254 18.9132ZM105.469 18.172C106.142 18.8339 106.959 19.1658 107.934 19.1658C108.901 19.1658 109.726 18.8339 110.391 18.172C111.061 17.5101 111.401 16.6602 111.401 15.6295C111.401 14.5989 111.061 13.7489 110.391 13.087C109.726 12.4251 108.901 12.0932 107.934 12.0932C106.959 12.0932 106.142 12.4251 105.469 13.087C104.799 13.7489 104.459 14.5989 104.459 15.6295C104.459 16.6602 104.799 17.5101 105.469 18.172Z" fill="white" stroke="white" stroke-width="0.16" stroke-miterlimit="10"/>
<path d="M114.226 20.0508V11.2082H115.642L120.046 18.0854H120.097L120.046 16.3854V11.2082H121.211V20.0508H119.995L115.383 12.8344H115.332L115.383 14.5417V20.0508H114.226Z" fill="white" stroke="white" stroke-width="0.16" stroke-miterlimit="10"/>
<path d="M102.984 32.9645C99.4357 32.9645 96.537 35.6011 96.537 39.2388C96.537 42.847 99.4357 45.5112 102.984 45.5112C106.54 45.5112 109.439 42.847 109.439 39.2388C109.439 35.6011 106.54 32.9645 102.984 32.9645ZM102.984 43.0406C101.037 43.0406 99.3621 41.4715 99.3621 39.2388C99.3621 36.9765 101.037 35.4351 102.984 35.4351C104.931 35.4351 106.614 36.9765 106.614 39.2388C106.614 41.4715 104.931 43.0406 102.984 43.0406ZM88.9172 32.9645C85.3613 32.9645 82.4701 35.6011 82.4701 39.2388C82.4701 42.847 85.3613 45.5112 88.9172 45.5112C92.4712 45.5112 95.3643 42.847 95.3643 39.2388C95.3643 35.6011 92.4712 32.9645 88.9172 32.9645ZM88.9172 43.0406C86.9683 43.0406 85.2876 41.4715 85.2876 39.2388C85.2876 36.9765 86.9683 35.4351 88.9172 35.4351C90.8641 35.4351 92.5392 36.9765 92.5392 39.2388C92.5392 41.4715 90.8641 43.0406 88.9172 43.0406ZM72.1782 34.8875V37.5536H78.6989C78.5082 39.0433 77.9983 40.1385 77.2165 40.9018C76.2647 41.8237 74.7823 42.847 72.1782 42.847C68.1653 42.847 65.0229 39.685 65.0229 35.767C65.0229 31.849 68.1653 28.687 72.1782 28.687C74.348 28.687 75.9267 29.5148 77.0918 30.5879L79.0162 28.7091C77.3864 27.1899 75.2185 26.0228 72.1782 26.0228C66.6753 26.0228 62.0505 30.3943 62.0505 35.767C62.0505 41.1397 66.6753 45.5112 72.1782 45.5112C75.1524 45.5112 77.3864 44.5598 79.1427 42.7751C80.9423 41.018 81.5032 38.5474 81.5032 36.5524C81.5032 35.9329 81.4503 35.3632 81.3559 34.8875H72.1782ZM140.626 36.9544C140.095 35.5513 138.458 32.9645 135.123 32.9645C131.818 32.9645 129.067 35.507 129.067 39.2388C129.067 42.753 131.79 45.5112 135.44 45.5112C138.392 45.5112 140.095 43.7541 140.796 42.7308L138.605 41.3056C137.875 42.3492 136.879 43.0406 135.44 43.0406C134.011 43.0406 132.985 42.4008 132.328 41.1397L140.923 37.6679L140.626 36.9544ZM131.864 39.0433C131.79 36.6243 133.788 35.3853 135.219 35.3853C136.341 35.3853 137.293 35.9329 137.61 36.7165L131.864 39.0433ZM124.878 45.1295H127.704V26.6921H124.878V45.1295ZM120.252 34.3621H120.157C119.523 33.6282 118.312 32.9645 116.779 32.9645C113.561 32.9645 110.619 35.7227 110.619 39.259C110.619 42.7751 113.561 45.5112 116.779 45.5112C118.312 45.5112 119.523 44.8419 120.157 44.086H120.252V44.9857C120.252 47.3845 118.939 48.6732 116.822 48.6732C115.096 48.6732 114.026 47.4564 113.584 46.4331L111.127 47.4342C111.835 49.0973 113.71 51.1439 116.822 51.1439C120.135 51.1439 122.93 49.2411 122.93 44.6115V33.3461H120.252V34.3621ZM117.021 43.0406C115.074 43.0406 113.444 41.4494 113.444 39.259C113.444 37.0484 115.074 35.4351 117.021 35.4351C118.939 35.4351 120.452 37.0484 120.452 39.259C120.452 41.4494 118.939 43.0406 117.021 43.0406ZM153.853 26.6921H147.096V45.1295H149.913V38.1436H153.853C156.982 38.1436 160.05 35.9329 160.05 32.4169C160.05 28.9027 156.974 26.6921 153.853 26.6921ZM153.926 35.5789H149.913V29.2567H153.926C156.03 29.2567 157.231 30.9622 157.231 32.4169C157.231 33.844 156.03 35.5789 153.926 35.5789ZM171.343 32.9295C169.307 32.9295 167.191 33.8071 166.32 35.7522L168.82 36.7755C169.358 35.7522 170.348 35.4204 171.394 35.4204C172.856 35.4204 174.338 36.2777 174.361 37.7914V37.985C173.851 37.6974 172.759 37.2715 171.417 37.2715C168.724 37.2715 165.98 38.7188 165.98 41.4199C165.98 43.8906 168.186 45.4817 170.665 45.4817C172.561 45.4817 173.607 44.6465 174.265 43.6748H174.361V45.1H177.082V38.0274C177.082 34.7585 174.582 32.9295 171.343 32.9295ZM171.003 43.0332C170.082 43.0332 168.798 42.587 168.798 41.4716C168.798 40.0445 170.399 39.4969 171.785 39.4969C173.026 39.4969 173.607 39.7642 174.361 40.1164C174.14 41.8237 172.635 43.0332 171.003 43.0332ZM186.996 33.3332L183.758 41.3259H183.661L180.313 33.3332H177.275L182.305 44.5027L179.435 50.718H182.379L190.131 33.3332H186.996ZM161.599 45.1295H164.424V26.6921H161.599V45.1295Z" fill="white"/>
<path d="M15.8144 11.9992C15.3706 12.4527 15.1138 13.1589 15.1138 14.0734V46.693C15.1138 47.6075 15.3706 48.3137 15.8144 48.7672L15.9239 48.8668L34.6458 30.5952V30.1638L15.9239 11.8922L15.8144 11.9992Z" fill="url(#paint0_linear_45_4314)"/>
<path d="M40.8794 36.6888L34.6458 30.5952V30.1637L40.887 24.0702L41.0267 24.1494L48.418 28.2555C50.5274 29.4207 50.5274 31.3382 48.418 32.5108L41.0267 36.6095L40.8794 36.6888Z" fill="url(#paint1_linear_45_4314)"/>
<path d="M41.0268 36.6095L34.6458 30.3795L15.8145 48.7672C16.5151 49.4863 17.6576 49.5729 18.9568 48.8539L41.0268 36.6095Z" fill="url(#paint2_linear_45_4314)"/>
<path d="M41.0268 24.1495L18.9568 11.9051C17.6576 11.1935 16.5151 11.2801 15.8145 11.9992L34.6458 30.3795L41.0268 24.1495Z" fill="url(#paint3_linear_45_4314)"/>
<defs>
<linearGradient id="paint0_linear_45_4314" x1="32.9835" y1="47.0327" x2="8.23654" y2="21.6861" gradientUnits="userSpaceOnUse">
<stop stop-color="#00A0FF"/>
<stop offset="0.0066" stop-color="#00A1FF"/>
<stop offset="0.2601" stop-color="#00BEFF"/>
<stop offset="0.5122" stop-color="#00D2FF"/>
<stop offset="0.7604" stop-color="#00DFFF"/>
<stop offset="1" stop-color="#00E3FF"/>
</linearGradient>
<linearGradient id="paint1_linear_45_4314" x1="51.1648" y1="30.3774" x2="14.6096" y2="30.3774" gradientUnits="userSpaceOnUse">
<stop stop-color="#FFE000"/>
<stop offset="0.4087" stop-color="#FFBD00"/>
<stop offset="0.7754" stop-color="#FFA500"/>
<stop offset="1" stop-color="#FF9C00"/>
</linearGradient>
<linearGradient id="paint2_linear_45_4314" x1="37.557" y1="26.9928" x2="3.99817" y2="-7.37928" gradientUnits="userSpaceOnUse">
<stop stop-color="#FF3A44"/>
<stop offset="1" stop-color="#C31162"/>
</linearGradient>
<linearGradient id="paint3_linear_45_4314" x1="11.0742" y1="59.6196" x2="26.0597" y2="44.2711" gradientUnits="userSpaceOnUse">
<stop stop-color="#32A071"/>
<stop offset="0.0685" stop-color="#2DA771"/>
<stop offset="0.4762" stop-color="#15CF74"/>
<stop offset="0.8009" stop-color="#06E775"/>
<stop offset="1" stop-color="#00F076"/>
</linearGradient>
</defs>
</svg>
