<svg xmlns="http://www.w3.org/2000/svg" width="182" height="76" fill="none">
  <path fill="#fff" d="M54.127 11.276c.697-.658 1.292-1.24 1.902-1.805 2.808-2.603 6.362-2.249 7.89 1.257 1.423 3.266 2.374 6.82 2.98 10.34 1.241 7.21 1.16 14.42-1.28 21.454-2.809 8.095-8.158 14.23-14.934 19.219-4.433 3.264-8.954 6.412-13.477 9.551-.398.276-1.287.35-1.649.094-5.277-3.735-10.641-7.366-15.714-11.366C7.505 50.29 3.224 37.372 5.547 22.088 6.06 18.705 6.87 15.337 7.89 12.07c.916-2.94 3.045-4.456 5.47-4.16 1.084.133 2.19.788 3.102 1.456 2.292 1.678 4.379 3.647 6.737 5.217 2.241 1.491 3.638 1.203 5.503-.714 1.198-1.23 2.253-2.6 3.388-3.892 2.572-2.93 5.809-2.947 8.397-.033 1.101 1.24 2.096 2.578 3.25 3.764 2.06 2.117 3.457 2.322 5.98.786 1.513-.921 2.88-2.08 4.41-3.217ZM10.904 40.678c1.561 4.628 3.823 8.957 7.51 12.124 5.692 4.89 11.742 9.362 17.574 13.96 4.815-3.407 9.32-6.391 13.599-9.668 6.658-5.099 11.363-11.57 13.064-19.963 1.55-7.645.552-15.12-1.543-22.508-.256-.904-.866-1.708-1.343-2.618-1.55 1.36-2.793 2.56-4.15 3.612-1.357 1.05-2.763 2.07-4.261 2.897-3.716 2.05-6.6 1.767-9.795-1.045-1.41-1.24-2.565-2.772-3.813-4.192-1.299-1.477-1.615-1.476-2.864.03-.986 1.187-1.929 2.421-3.015 3.51-3.407 3.417-6.744 3.87-10.928 1.466-1.384-.796-2.685-1.757-3.94-2.748-1.375-1.085-2.652-2.292-4.391-3.812-3.532 9.651-4.544 19.03-1.704 28.955Z"/>
  <path fill="#fff" d="M16.566 43.396c-3.176-6.091-3.602-12.47-2.847-19.01.197-1.702.545-3.386.876-5.396 7.55 6.216 14.807 7.311 21.604-.68 7.015 7.338 12.986 7.467 21.712 1.065 3.503 13.727.466 25.976-11.001 34.546-3.419 2.555-6.928 4.989-10.506 7.556-6.873-4.795-14.23-8.904-18.803-16.268-.343-.553-.644-1.133-1.035-1.813Zm23.682-15.531L36.5 25.833v28.842c11.725-6.833 18.395-14.835 17.157-26.913-4.367 1.738-8.75 2.069-13.409.103Zm53.167-8.067a4.518 4.518 0 0 0-.588-1.236 3.802 3.802 0 0 0-.887-.946 3.573 3.573 0 0 0-1.176-.588 4.908 4.908 0 0 0-1.449-.204c-.937 0-1.772.235-2.505.707-.733.472-1.31 1.165-1.73 2.08-.415.909-.623 2.017-.623 3.323 0 1.319.208 2.435.623 3.35.414.915.991 1.61 1.73 2.088.738.471 1.596.707 2.573.707.887 0 1.654-.17 2.302-.511a3.604 3.604 0 0 0 1.508-1.45c.353-.63.529-1.368.529-2.215l.716.11h-4.74v-2.47h7.083v2.096c0 1.494-.318 2.787-.954 3.878a6.522 6.522 0 0 1-2.625 2.522c-1.114.586-2.392.878-3.835.878-1.609 0-3.02-.36-4.236-1.082-1.21-.727-2.157-1.759-2.838-3.094-.677-1.34-1.015-2.932-1.015-4.773 0-1.409.2-2.667.597-3.775.403-1.108.966-2.049 1.688-2.821a7.183 7.183 0 0 1 2.54-1.773c.97-.409 2.028-.614 3.17-.614a8.34 8.34 0 0 1 2.701.427 7.163 7.163 0 0 1 2.225 1.193 6.652 6.652 0 0 1 1.61 1.84c.421.71.697 1.495.827 2.353h-3.221Zm14.151 6.375v-7.585h3.085v13.09h-2.991v-2.326h-.136a3.942 3.942 0 0 1-1.458 1.798c-.67.466-1.497.699-2.48.699-.858 0-1.616-.19-2.276-.571-.653-.386-1.164-.946-1.534-1.679-.369-.739-.554-1.63-.554-2.676v-8.335h3.086v7.858c0 .83.227 1.488.681 1.977.455.489 1.052.733 1.79.733.455 0 .895-.11 1.321-.332a2.691 2.691 0 0 0 1.049-.99c.278-.442.417-.996.417-1.661Zm9.545 5.77c-.83 0-1.577-.148-2.241-.443a3.659 3.659 0 0 1-1.569-1.33c-.38-.585-.571-1.307-.571-2.165 0-.738.137-1.35.409-1.832a3.17 3.17 0 0 1 1.117-1.16 5.635 5.635 0 0 1 1.594-.655 12.953 12.953 0 0 1 1.849-.333 73.19 73.19 0 0 0 1.867-.213c.477-.068.823-.17 1.039-.307.222-.142.333-.36.333-.656v-.051c0-.642-.191-1.14-.571-1.492-.381-.352-.929-.528-1.645-.528-.756 0-1.355.165-1.798.494-.438.33-.733.72-.887 1.168l-2.881-.41c.228-.795.603-1.46 1.125-1.994a4.896 4.896 0 0 1 1.918-1.21c.756-.272 1.591-.409 2.506-.409.63 0 1.258.074 1.883.222a5.298 5.298 0 0 1 1.713.733c.517.335.932.792 1.245 1.372.318.58.477 1.304.477 2.173v8.762h-2.966V29.88h-.102a3.777 3.777 0 0 1-.793 1.023c-.335.313-.758.565-1.27.759-.505.187-1.099.28-1.781.28Zm.801-2.267c.619 0 1.156-.122 1.611-.367a2.71 2.71 0 0 0 1.048-.988c.25-.41.375-.856.375-1.338V25.44c-.096.08-.261.153-.494.221a6.973 6.973 0 0 1-.767.18c-.284.05-.565.096-.844.136l-.724.102a5.381 5.381 0 0 0-1.236.307c-.364.142-.651.34-.861.597-.21.25-.315.573-.315.971 0 .568.207.997.622 1.287.415.29.943.435 1.585.435Zm8.733 2.003V18.588h2.992v2.181h.136c.239-.755.648-1.338 1.227-1.747a3.38 3.38 0 0 1 2.003-.622c.171 0 .361.009.571.026.216.011.395.031.537.06v2.837a3.239 3.239 0 0 0-.622-.119 5.714 5.714 0 0 0-.81-.06c-.562 0-1.068.123-1.517.367a2.684 2.684 0 0 0-1.048.997c-.256.426-.384.918-.384 1.475v7.696h-3.085Zm13.355.23c-1.029 0-1.949-.264-2.762-.793-.812-.528-1.454-1.295-1.926-2.301-.471-1.006-.707-2.227-.707-3.665 0-1.454.238-2.682.716-3.682.483-1.005 1.133-1.764 1.951-2.275a5.02 5.02 0 0 1 2.736-.776c.767 0 1.398.13 1.892.392.495.256.887.566 1.176.93.29.357.515.695.674 1.014h.128v-6.529h3.093v17.455h-3.034v-2.063h-.187a5.235 5.235 0 0 1-.691 1.014c-.301.353-.698.654-1.193.904-.494.25-1.116.375-1.866.375Zm.861-2.531c.653 0 1.21-.177 1.67-.529.46-.358.81-.855 1.048-1.491.239-.637.358-1.378.358-2.225 0-.846-.119-1.582-.358-2.207-.233-.625-.579-1.111-1.039-1.458-.455-.346-1.015-.52-1.679-.52-.688 0-1.262.18-1.722.537-.46.358-.807.853-1.04 1.483-.233.631-.349 1.353-.349 2.165 0 .818.116 1.548.349 2.19.239.637.588 1.14 1.048 1.509.466.364 1.037.546 1.714.546Zm8.918 2.3v-13.09h3.085v13.09h-3.085Zm1.551-14.948c-.489 0-.909-.162-1.261-.486-.353-.33-.529-.724-.529-1.185 0-.466.176-.86.529-1.184a1.78 1.78 0 0 1 1.261-.495c.494 0 .915.165 1.261.495.353.323.529.718.529 1.184 0 .46-.176.855-.529 1.185a1.779 1.779 0 0 1-1.261.486Zm7.994 15.213c-.83 0-1.577-.148-2.242-.443a3.662 3.662 0 0 1-1.568-1.33c-.381-.585-.571-1.307-.571-2.165 0-.738.137-1.35.409-1.832a3.17 3.17 0 0 1 1.117-1.16 5.629 5.629 0 0 1 1.593-.655 12.992 12.992 0 0 1 1.85-.333c.767-.08 1.389-.15 1.866-.213.478-.068.824-.17 1.04-.307.222-.142.333-.36.333-.656v-.051c0-.642-.191-1.14-.571-1.492-.381-.352-.929-.528-1.645-.528-.756 0-1.355.165-1.799.494-.437.33-.733.72-.886 1.168l-2.881-.41c.228-.795.603-1.46 1.125-1.994a4.896 4.896 0 0 1 1.918-1.21c.756-.272 1.591-.409 2.506-.409.63 0 1.258.074 1.883.222a5.298 5.298 0 0 1 1.713.733c.517.335.932.792 1.244 1.372.319.58.478 1.304.478 2.173v8.762h-2.966V29.88h-.102a3.777 3.777 0 0 1-.793 1.023c-.335.313-.759.565-1.27.759-.506.187-1.099.28-1.781.28Zm.801-2.267c.619 0 1.156-.122 1.611-.367a2.71 2.71 0 0 0 1.048-.988c.25-.41.375-.856.375-1.338V25.44c-.097.08-.261.153-.494.221a7.027 7.027 0 0 1-.767.18c-.284.05-.566.096-.844.136l-.724.102a5.368 5.368 0 0 0-1.236.307c-.364.142-.651.34-.861.597-.21.25-.315.573-.315.971 0 .568.207.997.622 1.287.415.29.943.435 1.585.435Zm11.818-5.668v7.67h-3.085v-13.09h2.949v2.224h.153a3.743 3.743 0 0 1 1.441-1.747c.664-.432 1.485-.648 2.463-.648.903 0 1.69.193 2.361.58.676.386 1.198.946 1.568 1.679.375.733.559 1.622.554 2.667v8.336h-3.086V23.82c0-.875-.227-1.56-.681-2.054-.449-.495-1.071-.742-1.867-.742-.54 0-1.02.12-1.44.358a2.477 2.477 0 0 0-.98 1.014c-.233.444-.35.98-.35 1.611Zm-87.98 36.67h-3.375l6.145-17.454h3.903l6.154 17.455h-3.375l-4.662-13.875h-.136l-4.654 13.875Zm.11-6.843h9.205v2.54h-9.204v-2.54Zm14.4 6.844V47.588h2.991v2.181h.136c.239-.755.648-1.338 1.228-1.747a3.375 3.375 0 0 1 2.002-.622c.171 0 .361.009.571.026.216.011.395.031.537.06v2.838a3.222 3.222 0 0 0-.622-.12 5.711 5.711 0 0 0-.809-.06c-.563 0-1.069.123-1.518.367a2.684 2.684 0 0 0-1.048.997c-.256.426-.383.918-.383 1.475v7.696h-3.086Zm14.291.255c-1.312 0-2.446-.273-3.4-.818a5.537 5.537 0 0 1-2.19-2.335c-.512-1.011-.768-2.202-.768-3.571 0-1.347.256-2.529.768-3.546.517-1.022 1.238-1.818 2.164-2.386.926-.574 2.015-.86 3.265-.86.806 0 1.568.13 2.284.391a5.166 5.166 0 0 1 1.909 1.194c.557.54.994 1.227 1.312 2.062.318.83.477 1.818.477 2.966v.946h-10.73v-2.08h7.773c-.006-.59-.133-1.116-.383-1.576a2.79 2.79 0 0 0-1.049-1.1c-.443-.267-.96-.4-1.551-.4-.631 0-1.185.153-1.662.46a3.171 3.171 0 0 0-1.116 1.193 3.43 3.43 0 0 0-.401 1.61V54.9c0 .761.139 1.415.418 1.96.278.54.667.955 1.167 1.245.5.284 1.086.426 1.756.426.449 0 .855-.063 1.219-.188a2.71 2.71 0 0 0 .946-.57c.267-.25.469-.56.605-.93l2.881.324a4.496 4.496 0 0 1-1.04 1.994c-.506.563-1.154 1-1.943 1.313-.79.307-1.694.46-2.711.46Zm11.719.009c-.83 0-1.577-.148-2.242-.443a3.656 3.656 0 0 1-1.568-1.33c-.381-.585-.571-1.307-.571-2.165 0-.738.136-1.35.409-1.832.273-.483.645-.87 1.116-1.16a5.635 5.635 0 0 1 1.594-.655 12.967 12.967 0 0 1 1.85-.333c.767-.08 1.389-.15 1.866-.213.477-.068.824-.17 1.04-.307.221-.142.332-.36.332-.656v-.051c0-.642-.19-1.14-.571-1.492-.38-.352-.929-.528-1.645-.528-.755 0-1.355.165-1.798.494-.437.33-.733.72-.886 1.168l-2.881-.41c.227-.795.602-1.46 1.125-1.994a4.896 4.896 0 0 1 1.918-1.21c.755-.272 1.591-.409 2.505-.409a8.15 8.15 0 0 1 1.884.222 5.298 5.298 0 0 1 1.713.733c.517.335.932.792 1.244 1.372.318.58.478 1.304.478 2.173v8.762h-2.966V58.88h-.103a3.753 3.753 0 0 1-.792 1.023c-.336.313-.759.565-1.27.758-.506.188-1.1.282-1.781.282Zm.801-2.267c.619 0 1.156-.122 1.611-.367.454-.25.803-.58 1.048-.988.25-.41.375-.855.375-1.338V54.44c-.097.08-.262.153-.495.221a6.92 6.92 0 0 1-.767.18c-.284.05-.565.096-.843.136l-.725.102c-.46.063-.872.165-1.236.307-.363.142-.65.34-.86.597-.211.25-.316.573-.316.971 0 .568.208.997.622 1.287.415.29.944.435 1.586.435Z"/>
</svg>