<svg width="107" height="121" viewBox="0 0 107 121" fill="none" xmlns="http://www.w3.org/2000/svg">
<g clip-path="url(#clip0_45_174)">
<path d="M105.865 23.9298L103.848 57.2394C103.619 61.0271 101.906 64.5684 99.0708 67.0803L57.4829 103.92C51.5756 109.153 42.5519 108.607 37.3189 102.7L9.37497 71.1542C4.14202 65.2469 4.68829 56.2232 10.5957 50.9903L52.1835 14.1503C55.0191 11.6385 58.7412 10.3655 62.5289 10.5948L95.8175 12.5877C101.722 12.9451 106.222 18.0254 105.865 23.9298ZM80.4788 29.5489C78.5879 29.4345 76.7289 30.0758 75.3109 31.332C73.8928 32.5882 73.0319 34.3562 72.9174 36.2471C72.8029 38.1381 73.4443 39.997 74.7005 41.4151C75.9566 42.8331 77.7246 43.6941 79.6156 43.8085C81.5065 43.923 83.3655 43.2816 84.7835 42.0255C86.2016 40.7693 87.0625 39.0013 87.177 37.1104C87.2915 35.2194 86.6501 33.3605 85.3939 31.9424C84.1378 30.5244 82.3698 29.6634 80.4788 29.5489Z" fill="#02273A"/>
</g>
<defs>
<clipPath id="clip0_45_174">
<rect width="100" height="114.286" fill="white" transform="matrix(-0.998173 -0.0604274 -0.0604274 0.998173 106.944 6.10522)"/>
</clipPath>
</defs>
</svg>
