<svg xmlns="http://www.w3.org/2000/svg" width="122" height="133" fill="none">
  <g clip-path="url(#a)">
    <path fill="#02273A" d="m3.634 37.834 6.79 32.672a14.29 14.29 0 0 0 6.145 9.05l46.459 30.469c6.599 4.328 15.45 2.489 19.778-4.11l23.111-35.24c4.328-6.6 2.489-15.45-4.111-19.778l-46.458-30.47a14.29 14.29 0 0 0-10.75-2.028l-32.654 6.764c-5.792 1.204-9.514 6.88-8.31 12.67Zm25.93 1.905a7.142 7.142 0 1 1 2.908 13.986 7.142 7.142 0 0 1-2.908-13.986Z"/>
  </g>
  <defs>
    <clipPath id="a">
      <path fill="#fff" d="M0 20.35 97.907 0l23.258 111.895-97.908 20.35z"/>
    </clipPath>
  </defs>
</svg>